# xmcd
#
# Track frame offsets: 
#        150
#        26029
#        40989
#        54194
#        65756
#        77884
#        102769
#        119684
#        131067
#        152095
#        172071
#        198772
#        222759
#
# Disc length: 3250 seconds
#
# Revision: 0
# Processed by: cddbd v1.5.2PL0 Copyright (c) Steve Scherf et al.
# Submitted via: ExactAudioCopy v0.95b3
#
DISCID=b80cb00d
DTITLE=Bluestone - It Takes Time
DYEAR=2006
DGENRE=Blues
TTITLE0=Personal Manager
TTITLE1=Hard Hearted Woman
TTITLE2=It Takes Time
TTITLE3=Person To Person
TTITLE4=Spann's Stomp
TTITLE5=Teardrops Falling
TTITLE6=Every Night And Every Day
TTITLE7=The Big Boat
TTITLE8=Matchbox Blues
TTITLE9=I Love The Woman
TTITLE10=Party Line Blues
TTITLE11=I Found A New Love
TTITLE12=Losing Hand
EXTD=
EXTT0=
EXTT1=
EXTT2=
EXTT3=
EXTT4=
EXTT5=
EXTT6=
EXTT7=
EXTT8=
EXTT9=
EXTT10=
EXTT11=
EXTT12=
PLAYORDER=
